<svg width="1200" height="1200" viewBox="0 0 1200 1200" fill="none" xmlns="http://www.w3.org/2000/svg">
<g clip-path="url(#clip0_77_457)">
<path d="M39.8748 40.7902C40.3112 40.8593 40.721 40.5615 40.7901 40.1252C40.8592 39.6888 40.5615 39.279 40.1251 39.2099C39.6887 39.1407 39.2789 39.4385 39.2098 39.8749C39.1407 40.3113 39.4384 40.721 39.8748 40.7902Z" fill="#0D0D0D"/>
<path d="M119.875 40.7902C120.311 40.8593 120.721 40.5616 120.79 40.1252C120.859 39.6888 120.562 39.279 120.125 39.2099C119.689 39.1407 119.279 39.4385 119.21 39.8749C119.141 40.3113 119.438 40.721 119.875 40.7902Z" fill="#0D0D0D"/>
<path d="M199.875 40.7902C200.311 40.8593 200.721 40.5616 200.79 40.1252C200.859 39.6888 200.562 39.279 200.125 39.2099C199.689 39.1407 199.279 39.4385 199.21 39.8749C199.141 40.3113 199.438 40.721 199.875 40.7902Z" fill="#0D0D0D"/>
<path d="M279.875 40.7902C280.311 40.8593 280.721 40.5615 280.79 40.1252C280.859 39.6888 280.561 39.279 280.125 39.2099C279.689 39.1407 279.279 39.4385 279.21 39.8749C279.141 40.3113 279.438 40.721 279.875 40.7902Z" fill="#0D0D0D"/>
<path d="M359.875 40.7902C360.311 40.8593 360.721 40.5615 360.79 40.1252C360.859 39.6888 360.561 39.279 360.125 39.2099C359.689 39.1407 359.279 39.4385 359.21 39.8749C359.141 40.3113 359.438 40.721 359.875 40.7902Z" fill="#0D0D0D"/>
<path d="M439.875 40.7902C440.311 40.8593 440.721 40.5615 440.79 40.1252C440.859 39.6888 440.561 39.279 440.125 39.2099C439.689 39.1407 439.279 39.4385 439.21 39.8749C439.141 40.3113 439.438 40.721 439.875 40.7902Z" fill="#0D0D0D"/>
<path d="M519.875 40.7902C520.311 40.8593 520.721 40.5615 520.79 40.1252C520.859 39.6888 520.561 39.279 520.125 39.2099C519.689 39.1407 519.279 39.4385 519.21 39.8749C519.141 40.3113 519.438 40.721 519.875 40.7902Z" fill="#0D0D0D"/>
<path d="M599.875 40.7902C600.311 40.8593 600.721 40.5615 600.79 40.1252C600.859 39.6888 600.561 39.279 600.125 39.2099C599.689 39.1407 599.279 39.4385 599.21 39.8749C599.141 40.3113 599.438 40.721 599.875 40.7902Z" fill="#0D0D0D"/>
<path d="M679.875 40.7902C680.311 40.8593 680.721 40.5615 680.79 40.1252C680.859 39.6888 680.561 39.279 680.125 39.2099C679.689 39.1407 679.279 39.4385 679.21 39.8749C679.141 40.3113 679.438 40.721 679.875 40.7902Z" fill="#0D0D0D"/>
<path d="M759.875 40.7902C760.311 40.8593 760.721 40.5615 760.79 40.1252C760.859 39.6888 760.561 39.279 760.125 39.2099C759.689 39.1407 759.279 39.4385 759.21 39.8749C759.141 40.3113 759.438 40.721 759.875 40.7902Z" fill="#0D0D0D"/>
<path d="M839.875 40.7902C840.311 40.8593 840.721 40.5615 840.79 40.1252C840.859 39.6888 840.561 39.279 840.125 39.2099C839.689 39.1407 839.279 39.4385 839.21 39.8749C839.141 40.3113 839.438 40.721 839.875 40.7902Z" fill="#0D0D0D"/>
<path d="M919.875 40.7902C920.311 40.8593 920.721 40.5615 920.79 40.1252C920.859 39.6888 920.561 39.279 920.125 39.2099C919.689 39.1407 919.279 39.4385 919.21 39.8749C919.141 40.3113 919.438 40.721 919.875 40.7902Z" fill="#0D0D0D"/>
<path d="M999.875 40.7902C1000.31 40.8593 1000.72 40.5615 1000.79 40.1252C1000.86 39.6888 1000.56 39.279 1000.13 39.2099C999.689 39.1407 999.279 39.4385 999.21 39.8749C999.141 40.3113 999.438 40.721 999.875 40.7902Z" fill="#0D0D0D"/>
<path d="M1079.87 40.7902C1080.31 40.8593 1080.72 40.5616 1080.79 40.1252C1080.86 39.6888 1080.56 39.279 1080.13 39.2099C1079.69 39.1408 1079.28 39.4385 1079.21 39.8749C1079.14 40.3113 1079.44 40.7211 1079.87 40.7902Z" fill="#0D0D0D"/>
<path d="M1159.87 40.7902C1160.31 40.8593 1160.72 40.5616 1160.79 40.1252C1160.86 39.6888 1160.56 39.279 1160.13 39.2099C1159.69 39.1408 1159.28 39.4385 1159.21 39.8749C1159.14 40.3113 1159.44 40.7211 1159.87 40.7902Z" fill="#0D0D0D"/>
<path d="M39.8748 120.79C40.3112 120.859 40.721 120.562 40.7901 120.125C40.8592 119.689 40.5615 119.279 40.1251 119.21C39.6887 119.141 39.2789 119.438 39.2098 119.875C39.1407 120.311 39.4384 120.721 39.8748 120.79Z" fill="#0D0D0D"/>
<path d="M119.875 120.79C120.311 120.859 120.721 120.562 120.79 120.125C120.859 119.689 120.562 119.279 120.125 119.21C119.689 119.141 119.279 119.438 119.21 119.875C119.141 120.311 119.438 120.721 119.875 120.79Z" fill="#0D0D0D"/>
<path d="M199.875 120.79C200.311 120.859 200.721 120.562 200.79 120.125C200.859 119.689 200.562 119.279 200.125 119.21C199.689 119.141 199.279 119.438 199.21 119.875C199.141 120.311 199.438 120.721 199.875 120.79Z" fill="#0D0D0D"/>
<path d="M279.875 120.79C280.311 120.859 280.721 120.562 280.79 120.125C280.859 119.689 280.561 119.279 280.125 119.21C279.689 119.141 279.279 119.438 279.21 119.875C279.141 120.311 279.438 120.721 279.875 120.79Z" fill="#0D0D0D"/>
<path d="M359.875 120.79C360.311 120.859 360.721 120.562 360.79 120.125C360.859 119.689 360.561 119.279 360.125 119.21C359.689 119.141 359.279 119.438 359.21 119.875C359.141 120.311 359.438 120.721 359.875 120.79Z" fill="#0D0D0D"/>
<path d="M439.875 120.79C440.311 120.859 440.721 120.562 440.79 120.125C440.859 119.689 440.561 119.279 440.125 119.21C439.689 119.141 439.279 119.438 439.21 119.875C439.141 120.311 439.438 120.721 439.875 120.79Z" fill="#0D0D0D"/>
<path d="M519.875 120.79C520.311 120.859 520.721 120.562 520.79 120.125C520.859 119.689 520.561 119.279 520.125 119.21C519.689 119.141 519.279 119.438 519.21 119.875C519.141 120.311 519.438 120.721 519.875 120.79Z" fill="#0D0D0D"/>
<path d="M599.875 120.79C600.311 120.859 600.721 120.562 600.79 120.125C600.859 119.689 600.561 119.279 600.125 119.21C599.689 119.141 599.279 119.438 599.21 119.875C599.141 120.311 599.438 120.721 599.875 120.79Z" fill="#0D0D0D"/>
<path d="M679.875 120.79C680.311 120.859 680.721 120.562 680.79 120.125C680.859 119.689 680.561 119.279 680.125 119.21C679.689 119.141 679.279 119.438 679.21 119.875C679.141 120.311 679.438 120.721 679.875 120.79Z" fill="#0D0D0D"/>
<path d="M759.875 120.79C760.311 120.859 760.721 120.562 760.79 120.125C760.859 119.689 760.561 119.279 760.125 119.21C759.689 119.141 759.279 119.438 759.21 119.875C759.141 120.311 759.438 120.721 759.875 120.79Z" fill="#0D0D0D"/>
<path d="M839.875 120.79C840.311 120.859 840.721 120.562 840.79 120.125C840.859 119.689 840.561 119.279 840.125 119.21C839.689 119.141 839.279 119.438 839.21 119.875C839.141 120.311 839.438 120.721 839.875 120.79Z" fill="#0D0D0D"/>
<path d="M919.875 120.79C920.311 120.859 920.721 120.562 920.79 120.125C920.859 119.689 920.561 119.279 920.125 119.21C919.689 119.141 919.279 119.438 919.21 119.875C919.141 120.311 919.438 120.721 919.875 120.79Z" fill="#0D0D0D"/>
<path d="M999.875 120.79C1000.31 120.859 1000.72 120.562 1000.79 120.125C1000.86 119.689 1000.56 119.279 1000.13 119.21C999.689 119.141 999.279 119.438 999.21 119.875C999.141 120.311 999.438 120.721 999.875 120.79Z" fill="#0D0D0D"/>
<path d="M1079.87 120.79C1080.31 120.859 1080.72 120.562 1080.79 120.125C1080.86 119.689 1080.56 119.279 1080.13 119.21C1079.69 119.141 1079.28 119.438 1079.21 119.875C1079.14 120.311 1079.44 120.721 1079.87 120.79Z" fill="#0D0D0D"/>
<path d="M1159.87 120.79C1160.31 120.859 1160.72 120.562 1160.79 120.125C1160.86 119.689 1160.56 119.279 1160.13 119.21C1159.69 119.141 1159.28 119.438 1159.21 119.875C1159.14 120.311 1159.44 120.721 1159.87 120.79Z" fill="#0D0D0D"/>
<path d="M39.8748 200.79C40.3112 200.859 40.721 200.562 40.7901 200.125C40.8592 199.689 40.5615 199.279 40.1251 199.21C39.6887 199.141 39.2789 199.438 39.2098 199.875C39.1407 200.311 39.4384 200.721 39.8748 200.79Z" fill="#0D0D0D"/>
<path d="M119.875 200.79C120.311 200.859 120.721 200.562 120.79 200.125C120.859 199.689 120.562 199.279 120.125 199.21C119.689 199.141 119.279 199.438 119.21 199.875C119.141 200.311 119.438 200.721 119.875 200.79Z" fill="#0D0D0D"/>
<path d="M199.875 200.79C200.311 200.859 200.721 200.562 200.79 200.125C200.859 199.689 200.562 199.279 200.125 199.21C199.689 199.141 199.279 199.438 199.21 199.875C199.141 200.311 199.438 200.721 199.875 200.79Z" fill="#0D0D0D"/>
<path d="M279.875 200.79C280.311 200.859 280.721 200.562 280.79 200.125C280.859 199.689 280.561 199.279 280.125 199.21C279.689 199.141 279.279 199.438 279.21 199.875C279.141 200.311 279.438 200.721 279.875 200.79Z" fill="#0D0D0D"/>
<path d="M359.875 200.79C360.311 200.859 360.721 200.562 360.79 200.125C360.859 199.689 360.561 199.279 360.125 199.21C359.689 199.141 359.279 199.438 359.21 199.875C359.141 200.311 359.438 200.721 359.875 200.79Z" fill="#0D0D0D"/>
<path d="M439.113 205.6C442.206 206.09 445.11 203.98 445.6 200.887C446.09 197.794 443.98 194.89 440.887 194.4C437.794 193.91 434.89 196.02 434.4 199.113C433.91 202.206 436.02 205.11 439.113 205.6Z" fill="#2B2B2B"/>
<path d="M519.875 200.79C520.311 200.859 520.721 200.562 520.79 200.125C520.859 199.689 520.561 199.279 520.125 199.21C519.689 199.141 519.279 199.438 519.21 199.875C519.141 200.311 519.438 200.721 519.875 200.79Z" fill="#0D0D0D"/>
<path d="M599.875 200.79C600.311 200.859 600.721 200.562 600.79 200.125C600.859 199.689 600.561 199.279 600.125 199.21C599.689 199.141 599.279 199.438 599.21 199.875C599.141 200.311 599.438 200.721 599.875 200.79Z" fill="#0D0D0D"/>
<path d="M679.875 200.79C680.311 200.859 680.721 200.562 680.79 200.125C680.859 199.689 680.561 199.279 680.125 199.21C679.689 199.141 679.279 199.438 679.21 199.875C679.141 200.311 679.438 200.721 679.875 200.79Z" fill="#0D0D0D"/>
<path d="M759.113 205.6C762.206 206.09 765.11 203.98 765.6 200.887C766.09 197.794 763.98 194.89 760.887 194.4C757.794 193.91 754.89 196.02 754.4 199.113C753.91 202.206 756.02 205.11 759.113 205.6Z" fill="#2B2B2B"/>
<path d="M839.875 200.79C840.311 200.859 840.721 200.562 840.79 200.125C840.859 199.689 840.561 199.279 840.125 199.21C839.689 199.141 839.279 199.438 839.21 199.875C839.141 200.311 839.438 200.721 839.875 200.79Z" fill="#0D0D0D"/>
<path d="M919.875 200.79C920.311 200.859 920.721 200.562 920.79 200.125C920.859 199.689 920.561 199.279 920.125 199.21C919.689 199.141 919.279 199.438 919.21 199.875C919.141 200.311 919.438 200.721 919.875 200.79Z" fill="#0D0D0D"/>
<path d="M999.875 200.79C1000.31 200.859 1000.72 200.562 1000.79 200.125C1000.86 199.689 1000.56 199.279 1000.13 199.21C999.689 199.141 999.279 199.438 999.21 199.875C999.141 200.311 999.438 200.721 999.875 200.79Z" fill="#0D0D0D"/>
<path d="M1079.87 200.79C1080.31 200.859 1080.72 200.562 1080.79 200.125C1080.86 199.689 1080.56 199.279 1080.13 199.21C1079.69 199.141 1079.28 199.438 1079.21 199.875C1079.14 200.311 1079.44 200.721 1079.87 200.79Z" fill="#0D0D0D"/>
<path d="M1159.87 200.79C1160.31 200.859 1160.72 200.562 1160.79 200.125C1160.86 199.689 1160.56 199.279 1160.13 199.21C1159.69 199.141 1159.28 199.438 1159.21 199.875C1159.14 200.311 1159.44 200.721 1159.87 200.79Z" fill="#0D0D0D"/>
<path d="M39.8748 280.79C40.3112 280.859 40.721 280.562 40.7901 280.125C40.8592 279.689 40.5615 279.279 40.1251 279.21C39.6887 279.141 39.2789 279.438 39.2098 279.875C39.1407 280.311 39.4384 280.721 39.8748 280.79Z" fill="#0D0D0D"/>
<path d="M115.568 307.981C131.022 310.429 145.534 299.885 147.981 284.432C150.429 268.978 139.885 254.466 124.432 252.019C108.978 249.571 94.4665 260.115 92.0189 275.568C89.5713 291.022 100.115 305.534 115.568 307.981Z" fill="#897356"/>
<path d="M194.681 313.581C213.228 316.519 230.644 303.865 233.581 285.319C236.519 266.772 223.865 249.356 205.319 246.419C186.772 243.481 169.356 256.135 166.419 274.681C163.481 293.228 176.135 310.644 194.681 313.581Z" fill="#C4A882"/>
<path d="M274.681 313.581C293.228 316.519 310.644 303.865 313.581 285.319C316.519 266.772 303.865 249.356 285.319 246.419C266.772 243.481 249.356 256.135 246.419 274.681C243.481 293.228 256.135 310.644 274.681 313.581Z" fill="#C4A882"/>
<path d="M354.681 313.581C373.228 316.519 390.644 303.865 393.581 285.319C396.519 266.772 383.865 249.356 365.319 246.419C346.772 243.481 329.356 256.135 326.419 274.681C323.481 293.228 336.135 310.644 354.681 313.581Z" fill="#C4A882"/>
<path d="M434.681 313.581C453.228 316.519 470.644 303.865 473.581 285.319C476.519 266.772 463.865 249.356 445.319 246.419C426.772 243.481 409.356 256.135 406.419 274.681C403.481 293.228 416.135 310.644 434.681 313.581Z" fill="#C4A882"/>
<path d="M514.681 313.581C533.228 316.519 550.644 303.865 553.581 285.319C556.519 266.772 543.865 249.356 525.319 246.419C506.772 243.481 489.356 256.135 486.419 274.681C483.481 293.228 496.135 310.644 514.681 313.581Z" fill="#C4A882"/>
<path d="M594.681 313.581C613.228 316.519 630.644 303.865 633.581 285.319C636.519 266.772 623.865 249.356 605.319 246.419C586.772 243.481 569.356 256.135 566.419 274.681C563.481 293.228 576.135 310.644 594.681 313.581Z" fill="#C4A882"/>
<path d="M674.681 313.581C693.228 316.519 710.644 303.865 713.581 285.319C716.519 266.772 703.865 249.356 685.319 246.419C666.772 243.481 649.356 256.135 646.419 274.681C643.481 293.228 656.135 310.644 674.681 313.581Z" fill="#C4A882"/>
<path d="M754.681 313.581C773.228 316.519 790.644 303.865 793.581 285.319C796.519 266.772 783.865 249.356 765.319 246.419C746.772 243.481 729.356 256.135 726.419 274.681C723.481 293.228 736.135 310.644 754.681 313.581Z" fill="#C4A882"/>
<path d="M834.681 313.581C853.228 316.519 870.644 303.865 873.581 285.319C876.519 266.772 863.865 249.356 845.319 246.419C826.772 243.481 809.356 256.135 806.419 274.681C803.481 293.228 816.135 310.644 834.681 313.581Z" fill="#C4A882"/>
<path d="M916.454 302.391C928.82 304.35 940.432 295.913 942.391 283.546C944.35 271.18 935.913 259.568 923.546 257.609C911.18 255.651 899.568 264.088 897.609 276.454C895.651 288.82 904.088 300.432 916.454 302.391Z" fill="#3F3529"/>
<path d="M999.113 285.6C1002.21 286.09 1005.11 283.98 1005.6 280.887C1006.09 277.794 1003.98 274.89 1000.89 274.4C997.794 273.91 994.89 276.02 994.4 279.113C993.91 282.206 996.02 285.11 999.113 285.6Z" fill="#2B2B2B"/>
<path d="M1079.87 280.79C1080.31 280.859 1080.72 280.562 1080.79 280.125C1080.86 279.689 1080.56 279.279 1080.13 279.21C1079.69 279.141 1079.28 279.438 1079.21 279.875C1079.14 280.311 1079.44 280.721 1079.87 280.79Z" fill="#0D0D0D"/>
<path d="M1159.87 280.79C1160.31 280.859 1160.72 280.562 1160.79 280.125C1160.86 279.689 1160.56 279.279 1160.13 279.21C1159.69 279.141 1159.28 279.438 1159.21 279.875C1159.14 280.311 1159.44 280.721 1159.87 280.79Z" fill="#0D0D0D"/>
<path d="M39.8748 360.79C40.3112 360.859 40.721 360.562 40.7901 360.125C40.8592 359.689 40.5615 359.279 40.1251 359.21C39.6887 359.141 39.2789 359.438 39.2098 359.875C39.1407 360.311 39.4384 360.721 39.8748 360.79Z" fill="#0D0D0D"/>
<path d="M115.568 387.981C131.022 390.429 145.534 379.885 147.981 364.432C150.429 348.978 139.885 334.466 124.432 332.019C108.978 329.571 94.4665 340.115 92.0189 355.568C89.5713 371.022 100.115 385.533 115.568 387.981Z" fill="#897356"/>
<path d="M194.681 393.581C213.228 396.519 230.644 383.865 233.581 365.319C236.519 346.772 223.865 329.356 205.319 326.419C186.772 323.481 169.356 336.135 166.419 354.681C163.481 373.228 176.135 390.644 194.681 393.581Z" fill="#C4A882"/>
<path d="M274.681 393.581C293.228 396.519 310.644 383.865 313.581 365.319C316.519 346.772 303.865 329.356 285.319 326.419C266.772 323.481 249.356 336.135 246.419 354.681C243.481 373.228 256.135 390.644 274.681 393.581Z" fill="#C4A882"/>
<path d="M354.681 393.581C373.228 396.519 390.644 383.865 393.581 365.319C396.519 346.772 383.865 329.356 365.319 326.419C346.772 323.481 329.356 336.135 326.419 354.681C323.481 373.228 336.135 390.644 354.681 393.581Z" fill="#C4A882"/>
<path d="M434.681 393.581C453.228 396.519 470.644 383.865 473.581 365.319C476.519 346.772 463.865 329.356 445.319 326.419C426.772 323.481 409.356 336.135 406.419 354.681C403.481 373.228 416.135 390.644 434.681 393.581Z" fill="#C4A882"/>
<path d="M514.681 393.581C533.228 396.519 550.644 383.865 553.581 365.319C556.519 346.772 543.865 329.356 525.319 326.419C506.772 323.481 489.356 336.135 486.419 354.681C483.481 373.228 496.135 390.644 514.681 393.581Z" fill="#C4A882"/>
<path d="M594.681 393.581C613.228 396.519 630.644 383.865 633.581 365.319C636.519 346.772 623.865 329.356 605.319 326.419C586.772 323.481 569.356 336.135 566.419 354.681C563.481 373.228 576.135 390.644 594.681 393.581Z" fill="#C4A882"/>
<path d="M674.681 393.581C693.228 396.519 710.644 383.865 713.581 365.319C716.519 346.772 703.865 329.356 685.319 326.419C666.772 323.481 649.356 336.135 646.419 354.681C643.481 373.228 656.135 390.644 674.681 393.581Z" fill="#C4A882"/>
<path d="M754.681 393.581C773.228 396.519 790.644 383.865 793.581 365.319C796.519 346.772 783.865 329.356 765.319 326.419C746.772 323.481 729.356 336.135 726.419 354.681C723.481 373.228 736.135 390.644 754.681 393.581Z" fill="#C4A882"/>
<path d="M834.681 393.581C853.228 396.519 870.644 383.865 873.581 365.319C876.519 346.772 863.865 329.356 845.319 326.419C826.772 323.481 809.356 336.135 806.419 354.681C803.481 373.228 816.135 390.644 834.681 393.581Z" fill="#C4A882"/>
<path d="M914.681 393.581C933.228 396.519 950.644 383.865 953.581 365.319C956.519 346.772 943.865 329.356 925.319 326.419C906.772 323.481 889.356 336.135 886.419 354.681C883.481 373.228 896.135 390.644 914.681 393.581Z" fill="#C4A882"/>
<path d="M996.454 382.391C1008.82 384.35 1020.43 375.913 1022.39 363.546C1024.35 351.18 1015.91 339.568 1003.55 337.609C991.18 335.651 979.568 344.088 977.609 356.454C975.651 368.82 984.088 380.432 996.454 382.391Z" fill="#3F3529"/>
<path d="M1079.87 360.79C1080.31 360.859 1080.72 360.562 1080.79 360.125C1080.86 359.689 1080.56 359.279 1080.13 359.21C1079.69 359.141 1079.28 359.438 1079.21 359.875C1079.14 360.311 1079.44 360.721 1079.87 360.79Z" fill="#0D0D0D"/>
<path d="M1159.87 360.79C1160.31 360.859 1160.72 360.562 1160.79 360.125C1160.86 359.689 1160.56 359.279 1160.13 359.21C1159.69 359.141 1159.28 359.438 1159.21 359.875C1159.14 360.311 1159.44 360.721 1159.87 360.79Z" fill="#0D0D0D"/>
<path d="M39.8748 440.79C40.3112 440.859 40.721 440.562 40.7901 440.125C40.8592 439.689 40.5615 439.279 40.1251 439.21C39.6887 439.141 39.2789 439.438 39.2098 439.875C39.1407 440.311 39.4384 440.721 39.8748 440.79Z" fill="#0D0D0D"/>
<path d="M115.568 467.981C131.022 470.429 145.534 459.885 147.981 444.432C150.429 428.978 139.885 414.466 124.432 412.019C108.978 409.571 94.4665 420.115 92.0189 435.568C89.5713 451.022 100.115 465.533 115.568 467.981Z" fill="#897356"/>
<path d="M194.681 473.581C213.228 476.519 230.644 463.865 233.581 445.319C236.519 426.772 223.865 409.356 205.319 406.419C186.772 403.481 169.356 416.135 166.419 434.681C163.481 453.228 176.135 470.644 194.681 473.581Z" fill="#C4A882"/>
<path d="M274.681 473.581C293.228 476.519 310.644 463.865 313.581 445.319C316.519 426.772 303.865 409.356 285.319 406.419C266.772 403.481 249.356 416.135 246.419 434.681C243.481 453.228 256.135 470.644 274.681 473.581Z" fill="#C4A882"/>
<path d="M354.681 473.581C373.228 476.519 390.644 463.865 393.581 445.319C396.519 426.772 383.865 409.356 365.319 406.419C346.772 403.481 329.356 416.135 326.419 434.681C323.481 453.228 336.135 470.644 354.681 473.581Z" fill="#C4A882"/>
<path d="M435.568 467.981C451.022 470.429 465.534 459.885 467.981 444.432C470.429 428.978 459.885 414.466 444.432 412.019C428.978 409.571 414.467 420.115 412.019 435.568C409.571 451.022 420.115 465.533 435.568 467.981Z" fill="#897356"/>
<path d="M515.568 467.981C531.022 470.429 545.534 459.885 547.981 444.432C550.429 428.978 539.885 414.466 524.432 412.019C508.978 409.571 494.467 420.115 492.019 435.568C489.571 451.022 500.115 465.533 515.568 467.981Z" fill="#897356"/>
<path d="M595.568 467.981C611.022 470.429 625.534 459.885 627.981 444.432C630.429 428.978 619.886 414.466 604.432 412.019C588.978 409.571 574.467 420.115 572.019 435.568C569.571 451.022 580.115 465.533 595.568 467.981Z" fill="#897356"/>
<path d="M675.568 467.981C691.022 470.429 705.534 459.885 707.981 444.432C710.429 428.978 699.886 414.466 684.432 412.019C668.978 409.571 654.467 420.115 652.019 435.568C649.571 451.022 660.115 465.533 675.568 467.981Z" fill="#897356"/>
<path d="M754.681 473.581C773.228 476.519 790.644 463.865 793.581 445.319C796.519 426.772 783.865 409.356 765.319 406.419C746.772 403.481 729.356 416.135 726.419 434.681C723.481 453.228 736.135 470.644 754.681 473.581Z" fill="#C4A882"/>
<path d="M834.681 473.581C853.228 476.519 870.644 463.865 873.581 445.319C876.519 426.772 863.865 409.356 845.319 406.419C826.772 403.481 809.356 416.135 806.419 434.681C803.481 453.228 816.135 470.644 834.681 473.581Z" fill="#C4A882"/>
<path d="M914.681 473.581C933.228 476.519 950.644 463.865 953.581 445.319C956.519 426.772 943.865 409.356 925.319 406.419C906.772 403.481 889.356 416.135 886.419 434.681C883.481 453.228 896.135 470.644 914.681 473.581Z" fill="#C4A882"/>
<path d="M994.681 473.581C1013.23 476.519 1030.64 463.865 1033.58 445.319C1036.52 426.772 1023.87 409.356 1005.32 406.419C986.772 403.481 969.356 416.135 966.419 434.681C963.481 453.228 976.135 470.644 994.681 473.581Z" fill="#C4A882"/>
<path d="M1078.23 451.19C1084.41 452.169 1090.21 447.953 1091.19 441.772C1092.17 435.592 1087.95 429.788 1081.77 428.81C1075.59 427.831 1069.79 432.047 1068.81 438.228C1067.83 444.408 1072.05 450.212 1078.23 451.19Z" fill="#2D2922"/>
<path d="M1159.87 440.79C1160.31 440.859 1160.72 440.562 1160.79 440.125C1160.86 439.689 1160.56 439.279 1160.13 439.21C1159.69 439.141 1159.28 439.438 1159.21 439.875C1159.14 440.311 1159.44 440.721 1159.87 440.79Z" fill="#0D0D0D"/>
<path d="M39.8748 520.79C40.3112 520.859 40.721 520.562 40.7901 520.125C40.8592 519.689 40.5615 519.279 40.1251 519.21C39.6887 519.141 39.2789 519.438 39.2098 519.875C39.1407 520.311 39.4384 520.721 39.8748 520.79Z" fill="#0D0D0D"/>
<path d="M115.568 547.981C131.022 550.429 145.534 539.885 147.981 524.432C150.429 508.978 139.885 494.466 124.432 492.019C108.978 489.571 94.4665 500.115 92.0189 515.568C89.5713 531.022 100.115 545.534 115.568 547.981Z" fill="#897356"/>
<path d="M194.681 553.581C213.228 556.519 230.644 543.865 233.581 525.319C236.519 506.772 223.865 489.356 205.319 486.419C186.772 483.481 169.356 496.135 166.419 514.681C163.481 533.228 176.135 550.644 194.681 553.581Z" fill="#C4A882"/>
<path d="M274.681 553.581C293.228 556.519 310.644 543.865 313.581 525.319C316.519 506.772 303.865 489.356 285.319 486.419C266.772 483.481 249.356 496.135 246.419 514.681C243.481 533.228 256.135 550.644 274.681 553.581Z" fill="#C4A882"/>
<path d="M355.568 547.981C371.022 550.429 385.534 539.885 387.981 524.432C390.429 508.978 379.885 494.466 364.432 492.019C348.978 489.571 334.467 500.115 332.019 515.568C329.571 531.022 340.115 545.534 355.568 547.981Z" fill="#897356"/>
<path d="M439.875 520.79C440.311 520.859 440.721 520.562 440.79 520.125C440.859 519.689 440.561 519.279 440.125 519.21C439.689 519.141 439.279 519.438 439.21 519.875C439.141 520.311 439.438 520.721 439.875 520.79Z" fill="#0D0D0D"/>
<path d="M519.875 520.79C520.311 520.859 520.721 520.562 520.79 520.125C520.859 519.689 520.561 519.279 520.125 519.21C519.689 519.141 519.279 519.438 519.21 519.875C519.141 520.311 519.438 520.721 519.875 520.79Z" fill="#0D0D0D"/>
<path d="M599.875 520.79C600.311 520.859 600.721 520.562 600.79 520.125C600.859 519.689 600.561 519.279 600.125 519.21C599.689 519.141 599.279 519.438 599.21 519.875C599.141 520.311 599.438 520.721 599.875 520.79Z" fill="#0D0D0D"/>
<path d="M679.875 520.79C680.311 520.859 680.721 520.562 680.79 520.125C680.859 519.689 680.561 519.279 680.125 519.21C679.689 519.141 679.279 519.438 679.21 519.875C679.141 520.311 679.438 520.721 679.875 520.79Z" fill="#0D0D0D"/>
<path d="M759.113 525.6C762.206 526.09 765.11 523.98 765.6 520.887C766.09 517.794 763.98 514.89 760.887 514.4C757.794 513.91 754.89 516.02 754.4 519.113C753.91 522.206 756.02 525.11 759.113 525.6Z" fill="#2B2B2B"/>
<path d="M834.681 553.581C853.228 556.519 870.644 543.865 873.581 525.319C876.519 506.772 863.865 489.356 845.319 486.419C826.772 483.481 809.356 496.135 806.419 514.681C803.481 533.228 816.135 550.644 834.681 553.581Z" fill="#C4A882"/>
<path d="M914.681 553.581C933.228 556.519 950.644 543.865 953.581 525.319C956.519 506.772 943.865 489.356 925.319 486.419C906.772 483.481 889.356 496.135 886.419 514.681C883.481 533.228 896.135 550.644 914.681 553.581Z" fill="#C4A882"/>
<path d="M994.681 553.581C1013.23 556.519 1030.64 543.865 1033.58 525.319C1036.52 506.772 1023.87 489.356 1005.32 486.419C986.772 483.481 969.356 496.135 966.419 514.681C963.481 533.228 976.135 550.644 994.681 553.581Z" fill="#C4A882"/>
<path d="M1076.45 542.391C1088.82 544.35 1100.43 535.913 1102.39 523.546C1104.35 511.18 1095.91 499.568 1083.55 497.609C1071.18 495.651 1059.57 504.088 1057.61 516.454C1055.65 528.82 1064.09 540.432 1076.45 542.391Z" fill="#3F3529"/>
<path d="M1159.87 520.79C1160.31 520.859 1160.72 520.562 1160.79 520.125C1160.86 519.689 1160.56 519.279 1160.13 519.21C1159.69 519.141 1159.28 519.438 1159.21 519.875C1159.14 520.311 1159.44 520.721 1159.87 520.79Z" fill="#0D0D0D"/>
<path d="M39.8748 600.79C40.3112 600.859 40.721 600.562 40.7901 600.125C40.8592 599.689 40.5615 599.279 40.1251 599.21C39.6887 599.141 39.2789 599.438 39.2098 599.875C39.1407 600.311 39.4384 600.721 39.8748 600.79Z" fill="#0D0D0D"/>
<path d="M115.568 627.981C131.022 630.429 145.534 619.885 147.981 604.432C150.429 588.978 139.885 574.466 124.432 572.019C108.978 569.571 94.4665 580.115 92.0189 595.568C89.5713 611.022 100.115 625.534 115.568 627.981Z" fill="#897356"/>
<path d="M194.681 633.581C213.228 636.519 230.644 623.865 233.581 605.319C236.519 586.772 223.865 569.356 205.319 566.419C186.772 563.481 169.356 576.135 166.419 594.681C163.481 613.228 176.135 630.644 194.681 633.581Z" fill="#C4A882"/>
<path d="M274.681 633.581C293.228 636.519 310.644 623.865 313.581 605.319C316.519 586.772 303.865 569.356 285.319 566.419C266.772 563.481 249.356 576.135 246.419 594.681C243.481 613.228 256.135 630.644 274.681 633.581Z" fill="#C4A882"/>
<path d="M355.568 627.981C371.022 630.429 385.534 619.885 387.981 604.432C390.429 588.978 379.885 574.466 364.432 572.019C348.978 569.571 334.467 580.115 332.019 595.568C329.571 611.022 340.115 625.534 355.568 627.981Z" fill="#897356"/>
<path d="M439.875 600.79C440.311 600.859 440.721 600.562 440.79 600.125C440.859 599.689 440.561 599.279 440.125 599.21C439.689 599.141 439.279 599.438 439.21 599.875C439.141 600.311 439.438 600.721 439.875 600.79Z" fill="#0D0D0D"/>
<path d="M519.875 600.79C520.311 600.859 520.721 600.562 520.79 600.125C520.859 599.689 520.561 599.279 520.125 599.21C519.689 599.141 519.279 599.438 519.21 599.875C519.141 600.311 519.438 600.721 519.875 600.79Z" fill="#0D0D0D"/>
<path d="M599.875 600.79C600.311 600.859 600.721 600.562 600.79 600.125C600.859 599.689 600.561 599.279 600.125 599.21C599.689 599.141 599.279 599.438 599.21 599.875C599.141 600.311 599.438 600.721 599.875 600.79Z" fill="#0D0D0D"/>
<path d="M679.875 600.79C680.311 600.859 680.721 600.562 680.79 600.125C680.859 599.689 680.561 599.279 680.125 599.21C679.689 599.141 679.279 599.438 679.21 599.875C679.141 600.311 679.438 600.721 679.875 600.79Z" fill="#0D0D0D"/>
<path d="M759.875 600.79C760.311 600.859 760.721 600.562 760.79 600.125C760.859 599.689 760.561 599.279 760.125 599.21C759.689 599.141 759.279 599.438 759.21 599.875C759.141 600.311 759.438 600.721 759.875 600.79Z" fill="#0D0D0D"/>
<path d="M835.568 627.981C851.022 630.429 865.534 619.885 867.981 604.432C870.429 588.978 859.886 574.466 844.432 572.019C828.978 569.571 814.467 580.115 812.019 595.568C809.571 611.022 820.115 625.534 835.568 627.981Z" fill="#897356"/>
<path d="M914.681 633.581C933.228 636.519 950.644 623.865 953.581 605.319C956.519 586.772 943.865 569.356 925.319 566.419C906.772 563.481 889.356 576.135 886.419 594.681C883.481 613.228 896.135 630.644 914.681 633.581Z" fill="#C4A882"/>
<path d="M994.681 633.581C1013.23 636.519 1030.64 623.865 1033.58 605.319C1036.52 586.772 1023.87 569.356 1005.32 566.419C986.772 563.481 969.356 576.135 966.419 594.681C963.481 613.228 976.135 630.644 994.681 633.581Z" fill="#C4A882"/>
<path d="M1075.57 627.981C1091.02 630.429 1105.53 619.885 1107.98 604.432C1110.43 588.978 1099.89 574.466 1084.43 572.019C1068.98 569.571 1054.47 580.115 1052.02 595.568C1049.57 611.022 1060.11 625.534 1075.57 627.981Z" fill="#897356"/>
<path d="M1159.87 600.79C1160.31 600.859 1160.72 600.562 1160.79 600.125C1160.86 599.689 1160.56 599.279 1160.13 599.21C1159.69 599.141 1159.28 599.438 1159.21 599.875C1159.14 600.311 1159.44 600.721 1159.87 600.79Z" fill="#0D0D0D"/>
<path d="M39.8748 680.79C40.3112 680.859 40.721 680.562 40.7901 680.125C40.8592 679.689 40.5615 679.279 40.1251 679.21C39.6887 679.141 39.2789 679.438 39.2098 679.875C39.1407 680.311 39.4384 680.721 39.8748 680.79Z" fill="#0D0D0D"/>
<path d="M115.568 707.981C131.022 710.429 145.534 699.885 147.981 684.432C150.429 668.978 139.885 654.466 124.432 652.019C108.978 649.571 94.4665 660.115 92.0189 675.568C89.5713 691.022 100.115 705.534 115.568 707.981Z" fill="#897356"/>
<path d="M194.681 713.581C213.228 716.519 230.644 703.865 233.581 685.319C236.519 666.772 223.865 649.356 205.319 646.419C186.772 643.481 169.356 656.135 166.419 674.681C163.481 693.228 176.135 710.644 194.681 713.581Z" fill="#C4A882"/>
<path d="M274.681 713.581C293.228 716.519 310.644 703.865 313.581 685.319C316.519 666.772 303.865 649.356 285.319 646.419C266.772 643.481 249.356 656.135 246.419 674.681C243.481 693.228 256.135 710.644 274.681 713.581Z" fill="#C4A882"/>
<path d="M355.568 707.981C371.022 710.429 385.534 699.885 387.981 684.432C390.429 668.978 379.885 654.466 364.432 652.019C348.978 649.571 334.467 660.115 332.019 675.568C329.571 691.022 340.115 705.534 355.568 707.981Z" fill="#897356"/>
<path d="M439.875 680.79C440.311 680.859 440.721 680.562 440.79 680.125C440.859 679.689 440.561 679.279 440.125 679.21C439.689 679.141 439.279 679.438 439.21 679.875C439.141 680.311 439.438 680.721 439.875 680.79Z" fill="#0D0D0D"/>
<path d="M519.875 680.79C520.311 680.859 520.721 680.562 520.79 680.125C520.859 679.689 520.561 679.279 520.125 679.21C519.689 679.141 519.279 679.438 519.21 679.875C519.141 680.311 519.438 680.721 519.875 680.79Z" fill="#0D0D0D"/>
<path d="M599.875 680.79C600.311 680.859 600.721 680.562 600.79 680.125C600.859 679.689 600.561 679.279 600.125 679.21C599.689 679.141 599.279 679.438 599.21 679.875C599.141 680.311 599.438 680.721 599.875 680.79Z" fill="#0D0D0D"/>
<path d="M679.875 680.79C680.311 680.859 680.721 680.562 680.79 680.125C680.859 679.689 680.561 679.279 680.125 679.21C679.689 679.141 679.279 679.438 679.21 679.875C679.141 680.311 679.438 680.721 679.875 680.79Z" fill="#0D0D0D"/>
<path d="M759.113 685.6C762.206 686.09 765.11 683.98 765.6 680.887C766.09 677.794 763.98 674.89 760.887 674.4C757.794 673.91 754.89 676.02 754.4 679.113C753.91 682.206 756.02 685.11 759.113 685.6Z" fill="#2B2B2B"/>
<path d="M834.681 713.581C853.228 716.519 870.644 703.865 873.581 685.319C876.519 666.772 863.865 649.356 845.319 646.419C826.772 643.481 809.356 656.135 806.419 674.681C803.481 693.228 816.135 710.644 834.681 713.581Z" fill="#C4A882"/>
<path d="M914.681 713.581C933.228 716.519 950.644 703.865 953.581 685.319C956.519 666.772 943.865 649.356 925.319 646.419C906.772 643.481 889.356 656.135 886.419 674.681C883.481 693.228 896.135 710.644 914.681 713.581Z" fill="#C4A882"/>
<path d="M994.681 713.581C1013.23 716.519 1030.64 703.865 1033.58 685.319C1036.52 666.772 1023.87 649.356 1005.32 646.419C986.772 643.481 969.356 656.135 966.419 674.681C963.481 693.228 976.135 710.644 994.681 713.581Z" fill="#C4A882"/>
<path d="M1076.45 702.391C1088.82 704.349 1100.43 695.913 1102.39 683.546C1104.35 671.18 1095.91 659.568 1083.55 657.609C1071.18 655.651 1059.57 664.087 1057.61 676.454C1055.65 688.82 1064.09 700.432 1076.45 702.391Z" fill="#3F3529"/>
<path d="M1159.87 680.79C1160.31 680.859 1160.72 680.562 1160.79 680.125C1160.86 679.689 1160.56 679.279 1160.13 679.21C1159.69 679.141 1159.28 679.438 1159.21 679.875C1159.14 680.311 1159.44 680.721 1159.87 680.79Z" fill="#0D0D0D"/>
<path d="M39.8748 760.79C40.3112 760.859 40.721 760.562 40.7901 760.125C40.8592 759.689 40.5615 759.279 40.1251 759.21C39.6887 759.141 39.2789 759.438 39.2098 759.875C39.1407 760.311 39.4384 760.721 39.8748 760.79Z" fill="#0D0D0D"/>
<path d="M115.568 787.981C131.022 790.429 145.534 779.885 147.981 764.432C150.429 748.978 139.885 734.466 124.432 732.019C108.978 729.571 94.4665 740.115 92.0189 755.568C89.5713 771.022 100.115 785.534 115.568 787.981Z" fill="#897356"/>
<path d="M194.681 793.581C213.228 796.519 230.644 783.865 233.581 765.319C236.519 746.772 223.865 729.356 205.319 726.419C186.772 723.481 169.356 736.135 166.419 754.681C163.481 773.228 176.135 790.644 194.681 793.581Z" fill="#C4A882"/>
<path d="M274.681 793.581C293.228 796.519 310.644 783.865 313.581 765.319C316.519 746.772 303.865 729.356 285.319 726.419C266.772 723.481 249.356 736.135 246.419 754.681C243.481 773.228 256.135 790.644 274.681 793.581Z" fill="#C4A882"/>
<path d="M354.681 793.581C373.228 796.519 390.644 783.865 393.581 765.319C396.519 746.772 383.865 729.356 365.319 726.419C346.772 723.481 329.356 736.135 326.419 754.681C323.481 773.228 336.135 790.644 354.681 793.581Z" fill="#C4A882"/>
<path d="M435.568 787.981C451.022 790.429 465.534 779.885 467.981 764.432C470.429 748.978 459.885 734.466 444.432 732.019C428.978 729.571 414.467 740.115 412.019 755.568C409.571 771.022 420.115 785.534 435.568 787.981Z" fill="#897356"/>
<path d="M515.568 787.981C531.022 790.429 545.534 779.885 547.981 764.432C550.429 748.978 539.885 734.466 524.432 732.019C508.978 729.571 494.467 740.115 492.019 755.568C489.571 771.022 500.115 785.534 515.568 787.981Z" fill="#897356"/>
<path d="M595.568 787.981C611.022 790.429 625.534 779.885 627.981 764.432C630.429 748.978 619.886 734.466 604.432 732.019C588.978 729.571 574.467 740.115 572.019 755.568C569.571 771.022 580.115 785.534 595.568 787.981Z" fill="#897356"/>
<path d="M675.568 787.981C691.022 790.429 705.534 779.885 707.981 764.432C710.429 748.978 699.886 734.466 684.432 732.019C668.978 729.571 654.467 740.115 652.019 755.568C649.571 771.022 660.115 785.534 675.568 787.981Z" fill="#897356"/>
<path d="M754.681 793.581C773.228 796.519 790.644 783.865 793.581 765.319C796.519 746.772 783.865 729.356 765.319 726.419C746.772 723.481 729.356 736.135 726.419 754.681C723.481 773.228 736.135 790.644 754.681 793.581Z" fill="#C4A882"/>
<path d="M834.681 793.581C853.228 796.519 870.644 783.865 873.581 765.319C876.519 746.772 863.865 729.356 845.319 726.419C826.772 723.481 809.356 736.135 806.419 754.681C803.481 773.228 816.135 790.644 834.681 793.581Z" fill="#C4A882"/>
<path d="M914.681 793.581C933.228 796.519 950.644 783.865 953.581 765.319C956.519 746.772 943.865 729.356 925.319 726.419C906.772 723.481 889.356 736.135 886.419 754.681C883.481 773.228 896.135 790.644 914.681 793.581Z" fill="#C4A882"/>
<path d="M994.681 793.581C1013.23 796.519 1030.64 783.865 1033.58 765.319C1036.52 746.772 1023.87 729.356 1005.32 726.419C986.772 723.481 969.356 736.135 966.419 754.681C963.481 773.228 976.135 790.644 994.681 793.581Z" fill="#C4A882"/>
<path d="M1078.23 771.191C1084.41 772.169 1090.21 767.953 1091.19 761.772C1092.17 755.592 1087.95 749.788 1081.77 748.81C1075.59 747.831 1069.79 752.047 1068.81 758.228C1067.83 764.408 1072.05 770.212 1078.23 771.191Z" fill="#2D2922"/>
<path d="M1159.87 760.79C1160.31 760.859 1160.72 760.562 1160.79 760.125C1160.86 759.689 1160.56 759.279 1160.13 759.21C1159.69 759.141 1159.28 759.438 1159.21 759.875C1159.14 760.311 1159.44 760.721 1159.87 760.79Z" fill="#0D0D0D"/>
<path d="M39.8748 840.79C40.3112 840.859 40.721 840.562 40.7901 840.125C40.8592 839.689 40.5615 839.279 40.1251 839.21C39.6887 839.141 39.2789 839.438 39.2098 839.875C39.1407 840.311 39.4384 840.721 39.8748 840.79Z" fill="#0D0D0D"/>
<path d="M115.568 867.981C131.022 870.429 145.534 859.885 147.981 844.432C150.429 828.978 139.885 814.466 124.432 812.019C108.978 809.571 94.4665 820.115 92.0189 835.568C89.5713 851.022 100.115 865.534 115.568 867.981Z" fill="#897356"/>
<path d="M194.681 873.581C213.228 876.519 230.644 863.865 233.581 845.319C236.519 826.772 223.865 809.356 205.319 806.419C186.772 803.481 169.356 816.135 166.419 834.681C163.481 853.228 176.135 870.644 194.681 873.581Z" fill="#C4A882"/>
<path d="M274.681 873.581C293.228 876.519 310.644 863.865 313.581 845.319C316.519 826.772 303.865 809.356 285.319 806.419C266.772 803.481 249.356 816.135 246.419 834.681C243.481 853.228 256.135 870.644 274.681 873.581Z" fill="#C4A882"/>
<path d="M354.681 873.581C373.228 876.519 390.644 863.865 393.581 845.319C396.519 826.772 383.865 809.356 365.319 806.419C346.772 803.481 329.356 816.135 326.419 834.681C323.481 853.228 336.135 870.644 354.681 873.581Z" fill="#C4A882"/>
<path d="M434.681 873.581C453.228 876.519 470.644 863.865 473.581 845.319C476.519 826.772 463.865 809.356 445.319 806.419C426.772 803.481 409.356 816.135 406.419 834.681C403.481 853.228 416.135 870.644 434.681 873.581Z" fill="#C4A882"/>
<path d="M514.681 873.581C533.228 876.519 550.644 863.865 553.581 845.319C556.519 826.772 543.865 809.356 525.319 806.419C506.772 803.481 489.356 816.135 486.419 834.681C483.481 853.228 496.135 870.644 514.681 873.581Z" fill="#C4A882"/>
<path d="M594.681 873.581C613.228 876.519 630.644 863.865 633.581 845.319C636.519 826.772 623.865 809.356 605.319 806.419C586.772 803.481 569.356 816.135 566.419 834.681C563.481 853.228 576.135 870.644 594.681 873.581Z" fill="#C4A882"/>
<path d="M674.681 873.581C693.228 876.519 710.644 863.865 713.581 845.319C716.519 826.772 703.865 809.356 685.319 806.419C666.772 803.481 649.356 816.135 646.419 834.681C643.481 853.228 656.135 870.644 674.681 873.581Z" fill="#C4A882"/>
<path d="M754.681 873.581C773.228 876.519 790.644 863.865 793.581 845.319C796.519 826.772 783.865 809.356 765.319 806.419C746.772 803.481 729.356 816.135 726.419 834.681C723.481 853.228 736.135 870.644 754.681 873.581Z" fill="#C4A882"/>
<path d="M834.681 873.581C853.228 876.519 870.644 863.865 873.581 845.319C876.519 826.772 863.865 809.356 845.319 806.419C826.772 803.481 809.356 816.135 806.419 834.681C803.481 853.228 816.135 870.644 834.681 873.581Z" fill="#C4A882"/>
<path d="M914.681 873.581C933.228 876.519 950.644 863.865 953.581 845.319C956.519 826.772 943.865 809.356 925.319 806.419C906.772 803.481 889.356 816.135 886.419 834.681C883.481 853.228 896.135 870.644 914.681 873.581Z" fill="#C4A882"/>
<path d="M996.454 862.391C1008.82 864.349 1020.43 855.913 1022.39 843.546C1024.35 831.18 1015.91 819.568 1003.55 817.609C991.18 815.651 979.568 824.087 977.609 836.454C975.651 848.82 984.088 860.432 996.454 862.391Z" fill="#3F3529"/>
<path d="M1079.87 840.79C1080.31 840.859 1080.72 840.562 1080.79 840.125C1080.86 839.689 1080.56 839.279 1080.13 839.21C1079.69 839.141 1079.28 839.438 1079.21 839.875C1079.14 840.311 1079.44 840.721 1079.87 840.79Z" fill="#0D0D0D"/>
<path d="M1159.87 840.79C1160.31 840.859 1160.72 840.562 1160.79 840.125C1160.86 839.689 1160.56 839.279 1160.13 839.21C1159.69 839.141 1159.28 839.438 1159.21 839.875C1159.14 840.311 1159.44 840.721 1159.87 840.79Z" fill="#0D0D0D"/>
<path d="M39.8748 920.79C40.3112 920.859 40.721 920.562 40.7901 920.125C40.8592 919.689 40.5615 919.279 40.1251 919.21C39.6887 919.141 39.2789 919.438 39.2098 919.875C39.1407 920.311 39.4384 920.721 39.8748 920.79Z" fill="#0D0D0D"/>
<path d="M115.568 947.981C131.022 950.429 145.534 939.885 147.981 924.432C150.429 908.978 139.885 894.466 124.432 892.019C108.978 889.571 94.4665 900.115 92.0189 915.568C89.5713 931.022 100.115 945.534 115.568 947.981Z" fill="#897356"/>
<path d="M194.681 953.581C213.228 956.519 230.644 943.865 233.581 925.319C236.519 906.772 223.865 889.356 205.319 886.419C186.772 883.481 169.356 896.135 166.419 914.681C163.481 933.228 176.135 950.644 194.681 953.581Z" fill="#C4A882"/>
<path d="M274.681 953.581C293.228 956.519 310.644 943.865 313.581 925.319C316.519 906.772 303.865 889.356 285.319 886.419C266.772 883.481 249.356 896.135 246.419 914.681C243.481 933.228 256.135 950.644 274.681 953.581Z" fill="#C4A882"/>
<path d="M354.681 953.581C373.228 956.519 390.644 943.865 393.581 925.319C396.519 906.772 383.865 889.356 365.319 886.419C346.772 883.481 329.356 896.135 326.419 914.681C323.481 933.228 336.135 950.644 354.681 953.581Z" fill="#C4A882"/>
<path d="M434.681 953.581C453.228 956.519 470.644 943.865 473.581 925.319C476.519 906.772 463.865 889.356 445.319 886.419C426.772 883.481 409.356 896.135 406.419 914.681C403.481 933.228 416.135 950.644 434.681 953.581Z" fill="#C4A882"/>
<path d="M514.681 953.581C533.228 956.519 550.644 943.865 553.581 925.319C556.519 906.772 543.865 889.356 525.319 886.419C506.772 883.481 489.356 896.135 486.419 914.681C483.481 933.228 496.135 950.644 514.681 953.581Z" fill="#C4A882"/>
<path d="M594.681 953.581C613.228 956.519 630.644 943.865 633.581 925.319C636.519 906.772 623.865 889.356 605.319 886.419C586.772 883.481 569.356 896.135 566.419 914.681C563.481 933.228 576.135 950.644 594.681 953.581Z" fill="#C4A882"/>
<path d="M674.681 953.581C693.228 956.519 710.644 943.865 713.581 925.319C716.519 906.772 703.865 889.356 685.319 886.419C666.772 883.481 649.356 896.135 646.419 914.681C643.481 933.228 656.135 950.644 674.681 953.581Z" fill="#C4A882"/>
<path d="M754.681 953.581C773.228 956.519 790.644 943.865 793.581 925.319C796.519 906.772 783.865 889.356 765.319 886.419C746.772 883.481 729.356 896.135 726.419 914.681C723.481 933.228 736.135 950.644 754.681 953.581Z" fill="#C4A882"/>
<path d="M834.681 953.581C853.228 956.519 870.644 943.865 873.581 925.319C876.519 906.772 863.865 889.356 845.319 886.419C826.772 883.481 809.356 896.135 806.419 914.681C803.481 933.228 816.135 950.644 834.681 953.581Z" fill="#C4A882"/>
<path d="M916.454 942.391C928.82 944.349 940.432 935.913 942.391 923.546C944.35 911.18 935.913 899.568 923.546 897.609C911.18 895.651 899.568 904.087 897.609 916.454C895.651 928.82 904.088 940.432 916.454 942.391Z" fill="#3F3529"/>
<path d="M999.113 925.6C1002.21 926.09 1005.11 923.98 1005.6 920.887C1006.09 917.794 1003.98 914.89 1000.89 914.4C997.794 913.91 994.89 916.02 994.4 919.113C993.91 922.206 996.02 925.11 999.113 925.6Z" fill="#2B2B2B"/>
<path d="M1079.87 920.79C1080.31 920.859 1080.72 920.562 1080.79 920.125C1080.86 919.689 1080.56 919.279 1080.13 919.21C1079.69 919.141 1079.28 919.438 1079.21 919.875C1079.14 920.311 1079.44 920.721 1079.87 920.79Z" fill="#0D0D0D"/>
<path d="M1159.87 920.79C1160.31 920.859 1160.72 920.562 1160.79 920.125C1160.86 919.689 1160.56 919.279 1160.13 919.21C1159.69 919.141 1159.28 919.438 1159.21 919.875C1159.14 920.311 1159.44 920.721 1159.87 920.79Z" fill="#0D0D0D"/>
<path d="M39.8748 1000.79C40.3112 1000.86 40.721 1000.56 40.7901 1000.13C40.8592 999.689 40.5615 999.279 40.1251 999.21C39.6887 999.141 39.2789 999.438 39.2098 999.875C39.1407 1000.31 39.4384 1000.72 39.8748 1000.79Z" fill="#0D0D0D"/>
<path d="M119.875 1000.79C120.311 1000.86 120.721 1000.56 120.79 1000.13C120.859 999.689 120.562 999.279 120.125 999.21C119.689 999.141 119.279 999.438 119.21 999.875C119.141 1000.31 119.438 1000.72 119.875 1000.79Z" fill="#0D0D0D"/>
<path d="M199.875 1000.79C200.311 1000.86 200.721 1000.56 200.79 1000.13C200.859 999.689 200.562 999.279 200.125 999.21C199.689 999.141 199.279 999.438 199.21 999.875C199.141 1000.31 199.438 1000.72 199.875 1000.79Z" fill="#0D0D0D"/>
<path d="M279.113 1005.6C282.206 1006.09 285.11 1003.98 285.6 1000.89C286.09 997.794 283.98 994.89 280.887 994.4C277.794 993.91 274.89 996.02 274.4 999.113C273.91 1002.21 276.02 1005.11 279.113 1005.6Z" fill="#2B2B2B"/>
<path d="M359.875 1000.79C360.311 1000.86 360.721 1000.56 360.79 1000.13C360.859 999.689 360.561 999.279 360.125 999.21C359.689 999.141 359.279 999.438 359.21 999.875C359.141 1000.31 359.438 1000.72 359.875 1000.79Z" fill="#0D0D0D"/>
<path d="M439.875 1000.79C440.311 1000.86 440.721 1000.56 440.79 1000.13C440.859 999.689 440.561 999.279 440.125 999.21C439.689 999.141 439.279 999.438 439.21 999.875C439.141 1000.31 439.438 1000.72 439.875 1000.79Z" fill="#0D0D0D"/>
<path d="M519.875 1000.79C520.311 1000.86 520.721 1000.56 520.79 1000.13C520.859 999.689 520.561 999.279 520.125 999.21C519.689 999.141 519.279 999.438 519.21 999.875C519.141 1000.31 519.438 1000.72 519.875 1000.79Z" fill="#0D0D0D"/>
<path d="M599.113 1005.6C602.206 1006.09 605.11 1003.98 605.6 1000.89C606.09 997.794 603.98 994.89 600.887 994.4C597.794 993.91 594.89 996.02 594.4 999.113C593.91 1002.21 596.02 1005.11 599.113 1005.6Z" fill="#2B2B2B"/>
<path d="M679.875 1000.79C680.311 1000.86 680.721 1000.56 680.79 1000.13C680.859 999.689 680.561 999.279 680.125 999.21C679.689 999.141 679.279 999.438 679.21 999.875C679.141 1000.31 679.438 1000.72 679.875 1000.79Z" fill="#0D0D0D"/>
<path d="M759.875 1000.79C760.311 1000.86 760.721 1000.56 760.79 1000.13C760.859 999.689 760.561 999.279 760.125 999.21C759.689 999.141 759.279 999.438 759.21 999.875C759.141 1000.31 759.438 1000.72 759.875 1000.79Z" fill="#0D0D0D"/>
<path d="M839.875 1000.79C840.311 1000.86 840.721 1000.56 840.79 1000.13C840.859 999.689 840.561 999.279 840.125 999.21C839.689 999.141 839.279 999.438 839.21 999.875C839.141 1000.31 839.438 1000.72 839.875 1000.79Z" fill="#0D0D0D"/>
<path d="M919.875 1000.79C920.311 1000.86 920.721 1000.56 920.79 1000.13C920.859 999.689 920.561 999.279 920.125 999.21C919.689 999.141 919.279 999.438 919.21 999.875C919.141 1000.31 919.438 1000.72 919.875 1000.79Z" fill="#0D0D0D"/>
<path d="M999.875 1000.79C1000.31 1000.86 1000.72 1000.56 1000.79 1000.13C1000.86 999.689 1000.56 999.279 1000.13 999.21C999.689 999.141 999.279 999.438 999.21 999.875C999.141 1000.31 999.438 1000.72 999.875 1000.79Z" fill="#0D0D0D"/>
<path d="M1079.87 1000.79C1080.31 1000.86 1080.72 1000.56 1080.79 1000.13C1080.86 999.689 1080.56 999.279 1080.13 999.21C1079.69 999.141 1079.28 999.438 1079.21 999.875C1079.14 1000.31 1079.44 1000.72 1079.87 1000.79Z" fill="#0D0D0D"/>
<path d="M1159.87 1000.79C1160.31 1000.86 1160.72 1000.56 1160.79 1000.13C1160.86 999.689 1160.56 999.279 1160.13 999.21C1159.69 999.141 1159.28 999.438 1159.21 999.875C1159.14 1000.31 1159.44 1000.72 1159.87 1000.79Z" fill="#0D0D0D"/>
<path d="M39.8748 1080.79C40.3112 1080.86 40.721 1080.56 40.7901 1080.12C40.8592 1079.69 40.5615 1079.28 40.1251 1079.21C39.6887 1079.14 39.2789 1079.44 39.2098 1079.87C39.1407 1080.31 39.4384 1080.72 39.8748 1080.79Z" fill="#0D0D0D"/>
<path d="M119.875 1080.79C120.311 1080.86 120.721 1080.56 120.79 1080.12C120.859 1079.69 120.562 1079.28 120.125 1079.21C119.689 1079.14 119.279 1079.44 119.21 1079.87C119.141 1080.31 119.438 1080.72 119.875 1080.79Z" fill="#0D0D0D"/>
<path d="M199.875 1080.79C200.311 1080.86 200.721 1080.56 200.79 1080.12C200.859 1079.69 200.562 1079.28 200.125 1079.21C199.689 1079.14 199.279 1079.44 199.21 1079.87C199.141 1080.31 199.438 1080.72 199.875 1080.79Z" fill="#0D0D0D"/>
<path d="M279.875 1080.79C280.311 1080.86 280.721 1080.56 280.79 1080.12C280.859 1079.69 280.561 1079.28 280.125 1079.21C279.689 1079.14 279.279 1079.44 279.21 1079.87C279.141 1080.31 279.438 1080.72 279.875 1080.79Z" fill="#0D0D0D"/>
<path d="M359.875 1080.79C360.311 1080.86 360.721 1080.56 360.79 1080.12C360.859 1079.69 360.561 1079.28 360.125 1079.21C359.689 1079.14 359.279 1079.44 359.21 1079.87C359.141 1080.31 359.438 1080.72 359.875 1080.79Z" fill="#0D0D0D"/>
<path d="M439.875 1080.79C440.311 1080.86 440.721 1080.56 440.79 1080.12C440.859 1079.69 440.561 1079.28 440.125 1079.21C439.689 1079.14 439.279 1079.44 439.21 1079.87C439.141 1080.31 439.438 1080.72 439.875 1080.79Z" fill="#0D0D0D"/>
<path d="M519.875 1080.79C520.311 1080.86 520.721 1080.56 520.79 1080.12C520.859 1079.69 520.561 1079.28 520.125 1079.21C519.689 1079.14 519.279 1079.44 519.21 1079.87C519.141 1080.31 519.438 1080.72 519.875 1080.79Z" fill="#0D0D0D"/>
<path d="M599.875 1080.79C600.311 1080.86 600.721 1080.56 600.79 1080.12C600.859 1079.69 600.561 1079.28 600.125 1079.21C599.689 1079.14 599.279 1079.44 599.21 1079.87C599.141 1080.31 599.438 1080.72 599.875 1080.79Z" fill="#0D0D0D"/>
<path d="M679.875 1080.79C680.311 1080.86 680.721 1080.56 680.79 1080.12C680.859 1079.69 680.561 1079.28 680.125 1079.21C679.689 1079.14 679.279 1079.44 679.21 1079.87C679.141 1080.31 679.438 1080.72 679.875 1080.79Z" fill="#0D0D0D"/>
<path d="M759.875 1080.79C760.311 1080.86 760.721 1080.56 760.79 1080.12C760.859 1079.69 760.561 1079.28 760.125 1079.21C759.689 1079.14 759.279 1079.44 759.21 1079.87C759.141 1080.31 759.438 1080.72 759.875 1080.79Z" fill="#0D0D0D"/>
<path d="M839.875 1080.79C840.311 1080.86 840.721 1080.56 840.79 1080.12C840.859 1079.69 840.561 1079.28 840.125 1079.21C839.689 1079.14 839.279 1079.44 839.21 1079.87C839.141 1080.31 839.438 1080.72 839.875 1080.79Z" fill="#0D0D0D"/>
<path d="M919.875 1080.79C920.311 1080.86 920.721 1080.56 920.79 1080.12C920.859 1079.69 920.561 1079.28 920.125 1079.21C919.689 1079.14 919.279 1079.44 919.21 1079.87C919.141 1080.31 919.438 1080.72 919.875 1080.79Z" fill="#0D0D0D"/>
<path d="M999.875 1080.79C1000.31 1080.86 1000.72 1080.56 1000.79 1080.12C1000.86 1079.69 1000.56 1079.28 1000.13 1079.21C999.689 1079.14 999.279 1079.44 999.21 1079.87C999.141 1080.31 999.438 1080.72 999.875 1080.79Z" fill="#0D0D0D"/>
<path d="M1079.87 1080.79C1080.31 1080.86 1080.72 1080.56 1080.79 1080.12C1080.86 1079.69 1080.56 1079.28 1080.13 1079.21C1079.69 1079.14 1079.28 1079.44 1079.21 1079.87C1079.14 1080.31 1079.44 1080.72 1079.87 1080.79Z" fill="#0D0D0D"/>
<path d="M1159.87 1080.79C1160.31 1080.86 1160.72 1080.56 1160.79 1080.12C1160.86 1079.69 1160.56 1079.28 1160.13 1079.21C1159.69 1079.14 1159.28 1079.44 1159.21 1079.87C1159.14 1080.31 1159.44 1080.72 1159.87 1080.79Z" fill="#0D0D0D"/>
<path d="M39.8748 1160.79C40.3112 1160.86 40.721 1160.56 40.7901 1160.12C40.8592 1159.69 40.5615 1159.28 40.1251 1159.21C39.6887 1159.14 39.2789 1159.44 39.2098 1159.87C39.1407 1160.31 39.4384 1160.72 39.8748 1160.79Z" fill="#0D0D0D"/>
<path d="M119.875 1160.79C120.311 1160.86 120.721 1160.56 120.79 1160.12C120.859 1159.69 120.562 1159.28 120.125 1159.21C119.689 1159.14 119.279 1159.44 119.21 1159.87C119.141 1160.31 119.438 1160.72 119.875 1160.79Z" fill="#0D0D0D"/>
<path d="M199.875 1160.79C200.311 1160.86 200.721 1160.56 200.79 1160.12C200.859 1159.69 200.562 1159.28 200.125 1159.21C199.689 1159.14 199.279 1159.44 199.21 1159.87C199.141 1160.31 199.438 1160.72 199.875 1160.79Z" fill="#0D0D0D"/>
<path d="M279.875 1160.79C280.311 1160.86 280.721 1160.56 280.79 1160.12C280.859 1159.69 280.561 1159.28 280.125 1159.21C279.689 1159.14 279.279 1159.44 279.21 1159.87C279.141 1160.31 279.438 1160.72 279.875 1160.79Z" fill="#0D0D0D"/>
<path d="M359.875 1160.79C360.311 1160.86 360.721 1160.56 360.79 1160.12C360.859 1159.69 360.561 1159.28 360.125 1159.21C359.689 1159.14 359.279 1159.44 359.21 1159.87C359.141 1160.31 359.438 1160.72 359.875 1160.79Z" fill="#0D0D0D"/>
<path d="M439.875 1160.79C440.311 1160.86 440.721 1160.56 440.79 1160.12C440.859 1159.69 440.561 1159.28 440.125 1159.21C439.689 1159.14 439.279 1159.44 439.21 1159.87C439.141 1160.31 439.438 1160.72 439.875 1160.79Z" fill="#0D0D0D"/>
<path d="M519.875 1160.79C520.311 1160.86 520.721 1160.56 520.79 1160.12C520.859 1159.69 520.561 1159.28 520.125 1159.21C519.689 1159.14 519.279 1159.44 519.21 1159.87C519.141 1160.31 519.438 1160.72 519.875 1160.79Z" fill="#0D0D0D"/>
<path d="M599.875 1160.79C600.311 1160.86 600.721 1160.56 600.79 1160.12C600.859 1159.69 600.561 1159.28 600.125 1159.21C599.689 1159.14 599.279 1159.44 599.21 1159.87C599.141 1160.31 599.438 1160.72 599.875 1160.79Z" fill="#0D0D0D"/>
<path d="M679.875 1160.79C680.311 1160.86 680.721 1160.56 680.79 1160.12C680.859 1159.69 680.561 1159.28 680.125 1159.21C679.689 1159.14 679.279 1159.44 679.21 1159.87C679.141 1160.31 679.438 1160.72 679.875 1160.79Z" fill="#0D0D0D"/>
<path d="M759.875 1160.79C760.311 1160.86 760.721 1160.56 760.79 1160.12C760.859 1159.69 760.561 1159.28 760.125 1159.21C759.689 1159.14 759.279 1159.44 759.21 1159.87C759.141 1160.31 759.438 1160.72 759.875 1160.79Z" fill="#0D0D0D"/>
<path d="M839.875 1160.79C840.311 1160.86 840.721 1160.56 840.79 1160.12C840.859 1159.69 840.561 1159.28 840.125 1159.21C839.689 1159.14 839.279 1159.44 839.21 1159.87C839.141 1160.31 839.438 1160.72 839.875 1160.79Z" fill="#0D0D0D"/>
<path d="M919.875 1160.79C920.311 1160.86 920.721 1160.56 920.79 1160.12C920.859 1159.69 920.561 1159.28 920.125 1159.21C919.689 1159.14 919.279 1159.44 919.21 1159.87C919.141 1160.31 919.438 1160.72 919.875 1160.79Z" fill="#0D0D0D"/>
<path d="M999.875 1160.79C1000.31 1160.86 1000.72 1160.56 1000.79 1160.12C1000.86 1159.69 1000.56 1159.28 1000.13 1159.21C999.689 1159.14 999.279 1159.44 999.21 1159.87C999.141 1160.31 999.438 1160.72 999.875 1160.79Z" fill="#0D0D0D"/>
<path d="M1079.87 1160.79C1080.31 1160.86 1080.72 1160.56 1080.79 1160.12C1080.86 1159.69 1080.56 1159.28 1080.13 1159.21C1079.69 1159.14 1079.28 1159.44 1079.21 1159.87C1079.14 1160.31 1079.44 1160.72 1079.87 1160.79Z" fill="#0D0D0D"/>
<path d="M1159.87 1160.79C1160.31 1160.86 1160.72 1160.56 1160.79 1160.12C1160.86 1159.69 1160.56 1159.28 1160.13 1159.21C1159.69 1159.14 1159.28 1159.44 1159.21 1159.87C1159.14 1160.31 1159.44 1160.72 1159.87 1160.79Z" fill="#0D0D0D"/>
</g>
<defs>
<clipPath id="clip0_77_457">
<rect width="1200" height="1200" fill="white"/>
</clipPath>
</defs>
</svg>
